<svg xmlns="http://www.w3.org/2000/svg" viewBox="0 0 320 80" width="320" height="80">
  <defs>
    <linearGradient id="icon-bg" x1="0%" y1="0%" x2="100%" y2="100%">
      <stop offset="0%" style="stop-color:#4080B7"/>
      <stop offset="100%" style="stop-color:#74AADB"/>
    </linearGradient>
  </defs>
  <!-- Icon -->
  <rect x="4" y="8" width="64" height="64" rx="14" fill="url(#icon-bg)"/>
  <path d="M36 16c-11 0-20 9-20 20s9 20 20 20c4.5 0 8.7-1.5 12.1-4.1l5.1 5.1c.9.9 2.3.9 3.2 0s.9-2.3 0-3.2l-4.8-4.8C54.2 46.1 56 41.3 56 36c0-11-9-20-20-20zm0 6.4c7.5 0 13.6 6.1 13.6 13.6S43.5 49.6 36 49.6 22.4 43.5 22.4 36 28.5 22.4 36 22.4z" fill="white" opacity="0.95"/>
  <rect x="32.6" y="32.6" width="6.8" height="6.8" rx="1" fill="white" opacity="0.5" transform="rotate(45 36 36)"/>
  <!-- Text -->
  <text x="82" y="34" font-family="system-ui, -apple-system, sans-serif" font-size="22" font-weight="700" fill="#171717">Quarto</text>
  <text x="82" y="60" font-family="system-ui, -apple-system, sans-serif" font-size="22" font-weight="700" fill="#4080B7">Craft</text>
</svg>
