<svg xmlns="http://www.w3.org/2000/svg" viewBox="0 0 32 32" width="32" height="32">
  <rect width="32" height="32" rx="6" fill="#4F46E5"/>
  <path d="M16 5c-6.1 0-11 4.9-11 11s4.9 11 11 11c2.5 0 4.8-.8 6.7-2.2l2.8 2.8c.5.5 1.3.5 1.8 0s.5-1.3 0-1.8l-2.6-2.6C26.5 21.4 27.5 18.8 27.5 16 27.5 9.9 22.1 5 16 5zm0 3.5c4.1 0 7.5 3.4 7.5 7.5s-3.4 7.5-7.5 7.5S8.5 20.1 8.5 16 11.9 8.5 16 8.5z" fill="white" opacity="0.95"/>
  <rect x="14.1" y="14.1" width="3.8" height="3.8" rx="0.5" fill="white" opacity="0.5" transform="rotate(45 16 16)"/>
</svg>
