<svg xmlns="http://www.w3.org/2000/svg" viewBox="0 0 512 512" width="512" height="512">
  <defs>
    <linearGradient id="bg" x1="0%" y1="0%" x2="100%" y2="100%">
      <stop offset="0%" style="stop-color:#4F46E5"/>
      <stop offset="100%" style="stop-color:#818CF8"/>
    </linearGradient>
  </defs>
  <!-- Background -->
  <rect width="512" height="512" rx="96" fill="url(#bg)"/>
  <!-- Q letter stylized as craft/document -->
  <path d="M256 80c-97 0-176 79-176 176s79 176 176 176c40 0 77-13 107-36l45 45c8 8 20 8 28 0s8-20 0-28l-42-42c28-32 46-74 46-119C440 159 353 80 256 80zm0 56c66 0 120 54 120 120s-54 120-120 120-120-54-120-120S190 136 256 136z" fill="white" opacity="0.95"/>
  <!-- Craft diamond accent -->
  <rect x="226" y="226" width="60" height="60" rx="8" fill="white" opacity="0.5" transform="rotate(45 256 256)"/>
</svg>
